<svg width="38" height="40" viewBox="0 0 38 40" fill="none" xmlns="http://www.w3.org/2000/svg">
<path d="M15 6.5V7H23V6.5C23 5.43913 22.5786 4.42172 21.8284 3.67157C21.0783 2.92143 20.0609 2.5 19 2.5C17.9391 2.5 16.9217 2.92143 16.1716 3.67157C15.4214 4.42172 15 5.43913 15 6.5ZM12.5 7V6.5C12.5 4.77609 13.1848 3.12279 14.4038 1.90381C15.6228 0.684819 17.2761 0 19 0C20.7239 0 22.3772 0.684819 23.5962 1.90381C24.8152 3.12279 25.5 4.77609 25.5 6.5V7H36.75C37.0815 7 37.3995 7.1317 37.6339 7.36612C37.8683 7.60054 38 7.91848 38 8.25C38 8.58152 37.8683 8.89946 37.6339 9.13388C37.3995 9.3683 37.0815 9.5 36.75 9.5H33.833L31.833 33.356C31.681 35.1676 30.854 36.856 29.5158 38.0866C28.1776 39.3172 26.426 40.0001 24.608 40H13.392C11.5742 39.9998 9.82277 39.3168 8.4848 38.0863C7.14683 36.8557 6.31994 35.1674 6.168 33.356L4.168 9.5H1.25C0.918479 9.5 0.600537 9.3683 0.366117 9.13388C0.131696 8.89946 0 8.58152 0 8.25C0 7.91848 0.131696 7.60054 0.366117 7.36612C0.600537 7.1317 0.918479 7 1.25 7H12.5ZM16.5 16.25C16.5 16.0858 16.4677 15.9233 16.4049 15.7716C16.342 15.62 16.25 15.4822 16.1339 15.3661C16.0178 15.25 15.88 15.158 15.7284 15.0951C15.5767 15.0323 15.4142 15 15.25 15C15.0858 15 14.9233 15.0323 14.7716 15.0951C14.62 15.158 14.4822 15.25 14.3661 15.3661C14.25 15.4822 14.158 15.62 14.0951 15.7716C14.0323 15.9233 14 16.0858 14 16.25V30.75C14 30.9142 14.0323 31.0767 14.0951 31.2284C14.158 31.38 14.25 31.5178 14.3661 31.6339C14.4822 31.75 14.62 31.842 14.7716 31.9049C14.9233 31.9677 15.0858 32 15.25 32C15.4142 32 15.5767 31.9677 15.7284 31.9049C15.88 31.842 16.0178 31.75 16.1339 31.6339C16.25 31.5178 16.342 31.38 16.4049 31.2284C16.4677 31.0767 16.5 30.9142 16.5 30.75V16.25ZM22.75 15C22.06 15 21.5 15.56 21.5 16.25V30.75C21.5 31.0815 21.6317 31.3995 21.8661 31.6339C22.1005 31.8683 22.4185 32 22.75 32C23.0815 32 23.3995 31.8683 23.6339 31.6339C23.8683 31.3995 24 31.0815 24 30.75V16.25C24 15.56 23.44 15 22.75 15Z" fill="black"/>
</svg>
