<svg width="19" height="19" viewBox="0 0 19 19" fill="none" xmlns="http://www.w3.org/2000/svg">
<path d="M15.988 0.0119629L18.988 3.01196L16.701 5.29996L13.701 2.29996L15.988 0.0119629ZM5 14H8L15.287 6.71296L12.287 3.71296L5 11V14Z" fill="black"/>
<path d="M16 17H5.158C5.132 17 5.105 17.01 5.079 17.01C5.046 17.01 5.013 17.001 4.979 17H2V3H8.847L10.847 1H2C0.897 1 0 1.896 0 3V17C0 18.104 0.897 19 2 19H16C16.5304 19 17.0391 18.7893 17.4142 18.4142C17.7893 18.0391 18 17.5304 18 17V8.332L16 10.332V17Z" fill="black"/>
</svg>
